<svg version="1.1" id="Layer_1" xmlns="http://www.w3.org/2000/svg" xmlns:xlink="http://www.w3.org/1999/xlink" x="0px" y="0px"
	 width="100%" viewBox="0 0 1200 665" enable-background="new 0 0 1200 665" xml:space="preserve">
<path fill="#FEFFFF" opacity="1.000000" stroke="none" 
	d="
M717.000000,666.000000 
	C478.000000,666.000000 239.500031,666.000000 1.000032,666.000000 
	C1.000021,444.333374 1.000021,222.666718 1.000011,1.000062 
	C400.999969,1.000041 800.999939,1.000041 1201.000000,1.000021 
	C1201.000000,222.666611 1201.000000,444.333221 1201.000000,665.999878 
	C1039.833374,666.000000 878.666687,666.000000 717.000000,666.000000 
M444.271545,365.774872 
	C446.000885,363.970276 447.786438,362.215912 449.450684,360.353180 
	C463.536987,344.587036 464.572418,324.896423 451.755920,308.857941 
	C444.203888,299.407379 434.736694,292.037781 424.322479,285.885986 
	C410.619202,277.791229 395.928101,271.991455 380.781372,267.330078 
	C377.161865,266.216187 376.161438,264.720123 376.881744,260.926208 
	C378.648743,251.619232 380.504456,242.261551 381.234222,232.839798 
	C382.587067,215.373810 383.112061,197.847900 376.984161,180.943954 
	C370.506958,163.076523 358.662170,153.071793 342.063934,152.963654 
	C334.717285,152.915787 327.036926,154.187088 320.062775,156.518738 
	C301.507080,162.722443 285.447754,173.431686 270.770935,186.265457 
	C266.564514,189.943634 262.283569,193.536591 258.769775,196.541763 
	C246.829468,187.632019 235.621124,178.741653 223.865982,170.645142 
	C212.135712,162.565811 199.200241,156.755722 185.135132,153.914398 
	C164.532883,149.752472 145.838898,159.172195 139.774918,178.094574 
	C136.361069,188.747391 133.601410,200.229202 133.806320,211.277084 
	C134.112885,227.805328 137.065231,244.312393 139.408081,260.754974 
	C139.978714,264.759644 138.827789,265.766724 135.496124,267.066772 
	C122.040894,272.317261 108.441353,277.340271 95.452248,283.602844 
	C82.459564,289.867126 71.339844,298.873474 62.718014,310.771027 
	C52.650021,324.664154 52.440296,340.915131 62.231781,354.966583 
	C68.917831,364.561554 77.488838,372.097168 87.024506,378.601868 
	C101.739166,388.639404 118.101120,395.261230 134.947159,400.644043 
	C139.281189,402.028900 139.764603,403.988983 138.943024,407.897369 
	C137.266342,415.873718 135.829407,423.913818 134.659866,431.980743 
	C131.945923,450.700043 132.763992,469.172607 139.010773,487.224030 
	C145.107727,504.842529 159.388901,514.592102 177.996597,513.810486 
	C194.734833,513.107483 209.457230,506.272278 223.068619,497.541931 
	C234.639984,490.120087 245.092773,480.937988 255.907593,472.367035 
	C257.989899,470.716766 259.218140,470.322906 261.326935,472.312988 
	C265.802887,476.537018 270.460052,480.589264 275.246246,484.460571 
	C290.121521,496.492310 306.131897,506.707275 324.733276,511.824127 
	C340.086365,516.047424 355.141388,515.568359 366.909607,502.956421 
	C374.532745,494.786774 378.913696,484.659393 380.767487,473.541962 
	C384.608551,450.506287 382.718750,427.723114 377.552032,405.132874 
	C376.845764,402.044922 377.757019,400.916565 380.385834,400.040741 
	C385.438110,398.357513 390.469360,396.599548 395.451111,394.718323 
	C413.188812,388.020264 429.731628,379.270233 444.271545,365.774872 
M604.555176,247.930450 
	C603.743774,247.765442 602.933289,247.461380 602.120789,247.455612 
	C576.471802,247.273697 550.822510,247.116272 525.173218,246.991592 
	C524.582092,246.988708 523.988892,247.405273 523.074646,247.746307 
	C523.074646,249.637299 523.074524,251.449615 523.074585,253.261932 
	C523.076111,286.750671 523.080322,320.239410 523.078125,353.728149 
	C523.076843,373.221466 523.144836,392.715454 522.987854,412.207550 
	C522.958679,415.827942 523.855835,417.409424 527.722290,417.089569 
	C531.362732,416.788422 535.074036,416.754547 538.707031,417.099152 
	C543.332886,417.537872 544.674438,415.815826 544.617676,411.216095 
	C544.383362,392.224701 544.596619,373.228149 544.460083,354.234802 
	C544.433716,350.566589 545.582764,349.229797 549.318909,349.326630 
	C557.644104,349.542206 565.988037,349.181763 574.302917,349.545227 
	C576.373535,349.635773 579.105469,351.077423 580.263916,352.768036 
	C586.000061,361.139130 591.306335,369.804596 596.772583,378.360931 
	C604.392212,390.288025 612.002319,402.221252 619.672241,414.115936 
	C620.358398,415.180145 621.431091,416.755920 622.361145,416.782074 
	C630.047852,416.997955 637.743286,416.904205 646.605530,416.904205 
	C631.057922,393.342438 616.273193,370.936768 601.046265,347.860962 
	C615.537537,345.725769 627.187439,340.123413 635.616821,328.833557 
	C644.089783,317.485229 645.925659,304.623657 644.875244,290.920288 
	C643.289062,270.227814 627.576172,253.078125 604.555176,247.930450 
M728.500000,361.715057 
	C744.989746,361.713379 761.480286,361.622040 777.968506,361.780365 
	C781.574463,361.815002 783.365295,360.924286 782.795471,357.055847 
	C781.563354,348.691101 781.296082,340.062317 779.029236,331.992340 
	C766.835144,288.581299 716.340271,279.210114 686.561829,303.385803 
	C665.815918,320.228333 660.013672,343.009277 663.898865,368.494751 
	C666.334717,384.472931 673.692627,398.125793 687.059814,407.929199 
	C700.257996,417.608673 715.078430,420.763977 731.312866,419.817200 
	C746.760254,418.916290 760.135071,413.627563 771.753601,403.672211 
	C772.882568,402.704834 774.019287,400.013611 773.486023,399.141632 
	C771.277954,395.530884 768.429138,392.311920 765.723206,388.830170 
	C764.379272,389.828857 763.460022,390.519226 762.533264,391.199432 
	C751.411133,399.362854 739.569092,404.202545 725.150146,403.905914 
	C704.240784,403.475861 687.467041,387.276855 683.847595,367.294098 
	C683.127197,363.316681 683.968079,361.555481 688.526306,361.644318 
	C701.513062,361.897278 714.508179,361.724213 728.500000,361.715057 
M814.700989,403.765839 
	C839.138672,428.445801 864.322144,423.365509 890.401489,405.123383 
	C890.401489,409.218597 890.401489,412.797668 890.401489,417.023560 
	C896.075562,417.023560 901.184875,416.918579 906.287048,417.064789 
	C909.132019,417.146332 910.018921,416.013885 910.009216,413.246002 
	C909.908875,384.603241 910.439880,355.945251 909.644409,327.323425 
	C909.243408,312.892090 901.763550,301.773956 888.024353,295.727112 
	C875.773438,290.335297 862.917114,289.230194 849.904419,291.437256 
	C837.060364,293.615692 825.315125,298.581024 815.948486,308.042572 
	C814.838989,309.163300 813.459961,311.532745 813.925903,312.436920 
	C816.016785,316.494080 818.729492,320.230804 821.583679,324.649414 
	C824.354492,322.173035 826.441650,320.333801 828.500427,318.463379 
	C840.378601,307.671753 862.235779,304.332245 876.739868,311.101868 
	C888.795593,316.728760 895.134338,337.576477 889.158142,352.506500 
	C888.437988,352.151520 887.618652,351.938873 887.051270,351.439850 
	C875.635803,341.399780 861.955444,337.749756 847.249756,338.632965 
	C833.672913,339.448395 821.428711,344.112701 813.638794,356.267975 
	C803.582703,371.959412 804.492310,387.685486 814.700989,403.765839 
M1044.931396,395.721680 
	C1041.737671,392.861115 1038.543823,390.000580 1035.119385,386.933380 
	C1033.174927,388.987579 1031.662109,390.718079 1030.013306,392.307220 
	C1011.912048,409.752594 985.063538,404.090210 972.178955,388.626251 
	C958.243713,371.901398 958.358093,344.047211 968.520386,327.009155 
	C981.796936,304.749878 1013.941956,302.931122 1028.923828,317.024750 
	C1035.920654,323.606720 1035.924072,323.605133 1042.938721,316.902832 
	C1043.540894,316.327515 1044.065796,315.659912 1044.715088,315.147369 
	C1047.397095,313.030304 1047.210205,311.191071 1044.991455,308.546448 
	C1035.635132,297.393738 1023.403076,292.167572 1009.298584,290.896790 
	C988.674255,289.038574 970.761414,294.841705 956.855286,310.725006 
	C943.098145,326.438049 939.020752,345.239746 941.716736,365.304108 
	C944.198730,383.775635 952.304993,399.445923 968.530945,410.155884 
	C984.642456,420.790283 1001.970215,422.166443 1020.184326,417.903412 
	C1030.279175,415.540741 1038.223022,409.622498 1045.115356,402.115845 
	C1046.843994,400.232910 1048.098022,398.356781 1044.931396,395.721680 
M1098.063965,322.534851 
	C1098.064331,321.035004 1098.063599,319.535156 1098.065552,318.035309 
	C1098.075439,310.610748 1098.075684,310.617920 1105.363037,310.632324 
	C1111.128418,310.643707 1116.893799,310.634644 1123.072632,310.634644 
	C1123.072632,305.864746 1122.916382,301.877075 1123.122070,297.908173 
	C1123.286133,294.741058 1121.942505,293.885345 1118.993408,293.994873 
	C1114.001099,294.180267 1108.983398,293.824585 1104.002441,294.126556 
	C1099.603882,294.393219 1097.541626,293.205139 1097.976685,288.343872 
	C1098.390869,283.715179 1098.068726,279.020172 1098.062134,274.354340 
	C1098.041748,259.719574 1098.042358,259.822937 1083.213623,260.116791 
	C1079.758057,260.185272 1078.416504,261.298187 1078.484375,264.734894 
	C1078.622192,271.730896 1078.581177,278.731567 1078.535156,285.729797 
	C1078.471436,295.433167 1079.147339,293.900635 1070.205811,294.026245 
	C1057.430176,294.205780 1057.538574,294.128601 1057.924438,306.814880 
	C1058.021729,310.017120 1059.290161,310.823914 1062.149902,310.700623 
	C1065.642822,310.549988 1069.170166,310.916595 1072.640625,310.598755 
	C1077.150024,310.185730 1078.672119,311.671570 1078.623779,316.404968 
	C1078.385498,339.731384 1078.431152,363.062012 1078.573975,386.389954 
	C1078.607422,391.858337 1078.529785,397.574493 1080.015747,402.741699 
	C1084.960083,419.934845 1114.568481,426.716919 1127.203857,413.773376 
	C1128.029663,412.927399 1128.523804,411.018890 1128.183472,409.907166 
	C1126.979858,405.974548 1125.346313,402.173553 1123.771973,398.050995 
	C1122.407593,398.761719 1121.526611,399.165314 1120.699951,399.659637 
	C1108.493896,406.958740 1098.799683,401.757935 1098.098389,387.514618 
	C1098.032837,386.184418 1098.068726,384.848877 1098.068604,383.515808 
	C1098.066284,363.519318 1098.065918,343.522858 1098.063965,322.534851 
z"/>
<path fill="#0AD7FC" opacity="1.000000" stroke="none" 
	d="
M444.020752,366.026001 
	C429.731628,379.270233 413.188812,388.020264 395.451111,394.718323 
	C390.469360,396.599548 385.438110,398.357513 380.385834,400.040741 
	C377.757019,400.916565 376.845764,402.044922 377.552032,405.132874 
	C382.718750,427.723114 384.608551,450.506287 380.767487,473.541962 
	C378.913696,484.659393 374.532745,494.786774 366.909607,502.956421 
	C355.141388,515.568359 340.086365,516.047424 324.733276,511.824127 
	C306.131897,506.707275 290.121521,496.492310 275.246246,484.460571 
	C270.460052,480.589264 265.802887,476.537018 261.326935,472.312988 
	C259.218140,470.322906 257.989899,470.716766 255.907593,472.367035 
	C245.092773,480.937988 234.639984,490.120087 223.068619,497.541931 
	C209.457230,506.272278 194.734833,513.107483 177.996597,513.810486 
	C159.388901,514.592102 145.107727,504.842529 139.010773,487.224030 
	C132.763992,469.172607 131.945923,450.700043 134.659866,431.980743 
	C135.829407,423.913818 137.266342,415.873718 138.943024,407.897369 
	C139.764603,403.988983 139.281189,402.028900 134.947159,400.644043 
	C118.101120,395.261230 101.739166,388.639404 87.024506,378.601868 
	C77.488838,372.097168 68.917831,364.561554 62.231781,354.966583 
	C52.440296,340.915131 52.650021,324.664154 62.718014,310.771027 
	C71.339844,298.873474 82.459564,289.867126 95.452248,283.602844 
	C108.441353,277.340271 122.040894,272.317261 135.496124,267.066772 
	C138.827789,265.766724 139.978714,264.759644 139.408081,260.754974 
	C137.065231,244.312393 134.112885,227.805328 133.806320,211.277084 
	C133.601410,200.229202 136.361069,188.747391 139.774918,178.094574 
	C145.838898,159.172195 164.532883,149.752472 185.135132,153.914398 
	C199.200241,156.755722 212.135712,162.565811 223.865982,170.645142 
	C235.621124,178.741653 246.829468,187.632019 258.769775,196.541763 
	C262.283569,193.536591 266.564514,189.943634 270.770935,186.265457 
	C285.447754,173.431686 301.507080,162.722443 320.062775,156.518738 
	C327.036926,154.187088 334.717285,152.915787 342.063934,152.963654 
	C358.662170,153.071793 370.506958,163.076523 376.984161,180.943954 
	C383.112061,197.847900 382.587067,215.373810 381.234222,232.839798 
	C380.504456,242.261551 378.648743,251.619232 376.881744,260.926208 
	C376.161438,264.720123 377.161865,266.216187 380.781372,267.330078 
	C395.928101,271.991455 410.619202,277.791229 424.322479,285.885986 
	C434.736694,292.037781 444.203888,299.407379 451.755920,308.857941 
	C464.572418,324.896423 463.536987,344.587036 449.450684,360.353180 
	C447.786438,362.215912 446.000885,363.970276 444.020752,366.026001 
M292.574554,397.551697 
	C293.912903,396.687256 295.790039,396.138489 296.509125,394.911224 
	C307.939636,375.401703 319.292664,355.845276 330.406311,336.154419 
	C331.317139,334.540710 331.124695,331.442596 330.165283,329.766754 
	C319.180359,310.578644 308.003143,291.499329 296.677307,272.510193 
	C295.738281,270.935822 293.428558,269.451904 291.613861,269.258728 
	C285.337280,268.590607 278.995636,268.217316 272.682953,268.267120 
	C256.872009,268.391876 241.056671,268.646454 225.261078,269.290131 
	C222.941376,269.384644 219.789627,271.338409 218.597534,273.360321 
	C207.452087,292.264221 196.599594,311.342255 185.849304,330.474976 
	C185.022293,331.946838 184.940231,334.530640 185.652725,336.069336 
	C195.184769,356.654327 206.633957,376.162140 219.601364,394.758270 
	C220.712692,396.351959 223.393509,397.706268 225.355820,397.720581 
	C247.482956,397.881958 269.612152,397.759216 292.574554,397.551697 
M111.935440,372.626617 
	C121.662735,376.463867 131.430054,380.204224 141.094070,384.194763 
	C144.179550,385.468811 145.155640,384.206726 146.143570,381.596863 
	C151.852005,366.516235 157.739822,351.503326 163.394699,336.402985 
	C164.014130,334.748901 164.089844,332.476288 163.479095,330.841156 
	C157.895462,315.892578 152.047272,301.042969 146.423935,286.108887 
	C145.379913,283.336243 144.106018,282.432892 141.233185,283.553253 
	C131.337189,287.412567 121.165451,290.644989 111.512047,295.026764 
	C97.806953,301.247681 85.116409,309.027740 76.368332,321.968842 
	C71.249046,329.541779 71.352608,336.678925 76.316422,344.205414 
	C84.979599,357.341217 97.633263,365.399628 111.935440,372.626617 
M180.773468,410.850708 
	C174.085403,409.591675 167.384506,408.395966 160.715576,407.042725 
	C158.026077,406.496979 156.692963,407.403137 156.098801,410.049255 
	C151.282623,431.497711 148.453430,453.190460 153.373611,474.856995 
	C157.465820,492.877380 166.242310,497.622345 180.737686,495.884308 
	C183.522507,495.550446 186.273315,494.761139 188.980179,493.976318 
	C210.533981,487.726776 227.720703,474.450317 243.948410,459.660919 
	C244.760941,458.920410 245.307037,457.887543 245.646927,457.432739 
	C234.622513,443.571381 223.926193,430.004974 213.028915,416.601959 
	C211.933548,415.254791 209.688736,414.421112 207.861893,414.161407 
	C199.145447,412.922363 190.389084,411.963898 180.773468,410.850708 
M327.531311,494.185547 
	C329.627441,494.719482 331.700562,495.379669 333.823517,495.766357 
	C345.582855,497.908142 353.735321,494.482056 358.211060,485.129974 
	C360.209503,480.954254 361.976807,476.538910 362.981812,472.038635 
	C367.701111,450.906372 365.249664,430.016754 360.341400,409.241821 
	C359.601715,406.110870 358.070251,406.062500 355.274445,406.525848 
	C339.880310,409.076965 324.422119,411.243896 309.036652,413.842712 
	C306.690643,414.238953 303.992859,415.696106 302.504486,417.517761 
	C292.612305,429.624939 283.095062,442.037903 273.243073,454.178772 
	C270.728119,457.278015 272.337616,458.958099 274.444733,460.802856 
	C290.162720,474.563751 306.310211,487.655701 327.531311,494.185547 
M361.885834,191.814957 
	C360.499908,188.251770 359.318359,184.591812 357.686432,181.145081 
	C354.043549,173.451004 347.072845,169.472687 338.680054,170.256866 
	C335.719940,170.533447 332.749969,171.129578 329.885559,171.937897 
	C307.082764,178.372726 289.184540,192.617493 272.249176,208.357544 
	C271.693481,208.873993 271.410889,209.684235 271.230988,209.979736 
	C282.016693,223.733978 292.497559,237.216187 303.176361,250.539764 
	C304.262878,251.895340 306.461578,252.763733 308.276184,253.066238 
	C320.544922,255.111557 332.851440,256.929108 345.140747,258.852264 
	C349.511536,259.536255 353.868378,260.309265 358.574066,261.099121 
	C359.655609,256.248260 360.745087,251.916962 361.576385,247.536652 
	C365.044739,229.260971 366.785065,210.955750 361.885834,191.814957 
M164.276260,173.523697 
	C157.334595,178.785767 154.402771,186.179733 152.905014,194.444794 
	C150.387253,208.338470 150.786194,222.259659 152.578522,236.144806 
	C153.652267,244.462952 155.422791,252.691162 156.889313,261.011749 
	C158.763214,260.841064 159.584473,260.813721 160.389771,260.685913 
	C176.273270,258.165131 192.170898,255.725266 208.016953,252.987076 
	C210.030792,252.639099 212.227325,251.091782 213.565338,249.463989 
	C220.954132,240.475021 228.052673,231.248291 235.356522,222.188339 
	C238.645386,218.108734 242.179611,214.226898 245.571976,210.290771 
	C230.476471,194.534363 205.737198,176.456863 183.406082,171.697571 
	C177.202682,170.375458 170.867432,169.886414 164.276260,173.523697 
M425.463776,359.005066 
	C429.829773,354.687836 434.607849,350.707001 438.468811,345.977478 
	C444.863190,338.144714 444.780334,328.044952 438.371643,320.223602 
	C434.918762,316.009613 430.955322,312.050598 426.638336,308.737366 
	C410.994995,296.731232 393.093903,289.276276 374.360291,283.567719 
	C371.105927,282.576050 370.402710,284.143311 369.470673,286.624176 
	C364.093750,300.935944 358.469360,315.155823 353.219177,329.513000 
	C352.416443,331.708130 352.403412,334.737488 353.252716,336.898590 
	C357.327362,347.266785 361.959259,357.414764 366.114471,367.753052 
	C368.246490,373.057556 369.794769,378.596680 371.671844,384.224701 
	C391.272430,378.783966 408.918823,370.913574 425.463776,359.005066 
M346.216064,365.244415 
	C344.843719,361.657776 343.471344,358.071136 341.635986,353.274445 
	C333.290710,367.796600 325.712860,380.983276 317.432861,395.391754 
	C330.617981,393.285522 342.594727,391.372314 355.494934,389.311584 
	C352.209778,380.756073 349.368011,373.355347 346.216064,365.244415 
M185.870071,373.636139 
	C182.364548,367.545929 178.859039,361.455688 175.353516,355.365479 
	C174.852692,355.367218 174.351883,355.368958 173.851059,355.370697 
	C170.109589,365.950500 166.289932,376.504578 162.782623,387.161469 
	C162.516632,387.969666 164.289764,390.320770 165.419113,390.568542 
	C170.910599,391.773285 176.491058,392.612671 182.068314,393.374329 
	C187.338089,394.093994 192.643021,394.556183 198.630356,395.207550 
	C194.132812,387.642242 190.165039,380.968048 185.870071,373.636139 
M263.356171,228.158081 
	C261.953156,226.144119 260.550140,224.130157 258.599365,221.329926 
	C249.811371,231.891571 242.375412,240.828308 234.294922,250.539688 
	C250.695541,250.539688 265.650726,250.539688 281.793854,250.539688 
	C275.352112,242.701431 269.590271,235.690521 263.356171,228.158081 
M259.226593,443.545319 
	C266.812744,434.716949 274.398865,425.888550 282.728973,416.194397 
	C265.920410,416.194397 250.905090,416.194397 235.889771,416.194397 
	C235.514755,416.630096 235.139740,417.065796 234.764725,417.501495 
	C242.696991,426.235138 250.629257,434.968781 259.226593,443.545319 
M351.351837,286.871063 
	C352.011871,284.990692 353.087341,283.131683 353.185638,281.222351 
	C353.251007,279.953308 352.106384,277.628143 351.185669,277.453827 
	C340.395996,275.411469 329.546051,273.687286 317.492889,271.675659 
	C325.762970,285.938080 333.277405,298.897339 341.479309,313.042236 
	C345.015350,303.662964 348.044098,295.629303 351.351837,286.871063 
M184.789276,295.276978 
	C189.114731,287.744263 193.440186,280.211548 198.363403,271.637848 
	C185.725021,273.681122 174.150635,275.552399 161.460342,277.604065 
	C165.969666,289.759766 170.049408,300.757446 174.578812,312.967255 
	C178.469360,306.233337 181.448868,301.076324 184.789276,295.276978 
z"/>
<path fill="#11D8FC" opacity="1.000000" stroke="none" 
	d="
M604.965820,248.048599 
	C627.576172,253.078125 643.289062,270.227814 644.875244,290.920288 
	C645.925659,304.623657 644.089783,317.485229 635.616821,328.833557 
	C627.187439,340.123413 615.537537,345.725769 601.046265,347.860962 
	C616.273193,370.936768 631.057922,393.342438 646.605530,416.904205 
	C637.743286,416.904205 630.047852,416.997955 622.361145,416.782074 
	C621.431091,416.755920 620.358398,415.180145 619.672241,414.115936 
	C612.002319,402.221252 604.392212,390.288025 596.772583,378.360931 
	C591.306335,369.804596 586.000061,361.139130 580.263916,352.768036 
	C579.105469,351.077423 576.373535,349.635773 574.302917,349.545227 
	C565.988037,349.181763 557.644104,349.542206 549.318909,349.326630 
	C545.582764,349.229797 544.433716,350.566589 544.460083,354.234802 
	C544.596619,373.228149 544.383362,392.224701 544.617676,411.216095 
	C544.674438,415.815826 543.332886,417.537872 538.707031,417.099152 
	C535.074036,416.754547 531.362732,416.788422 527.722290,417.089569 
	C523.855835,417.409424 522.958679,415.827942 522.987854,412.207550 
	C523.144836,392.715454 523.076843,373.221466 523.078125,353.728149 
	C523.080322,320.239410 523.076111,286.750671 523.074585,253.261932 
	C523.074524,251.449615 523.074646,249.637299 523.074646,247.746307 
	C523.988892,247.405273 524.582092,246.988708 525.173218,246.991592 
	C550.822510,247.116272 576.471802,247.273697 602.120789,247.455612 
	C602.933289,247.461380 603.743774,247.765442 604.965820,248.048599 
M613.591309,274.899414 
	C608.282715,270.008667 602.057373,266.535919 594.894897,266.224579 
	C579.767639,265.567078 564.608093,265.689758 549.468567,265.255310 
	C545.238647,265.133942 544.093140,266.682465 544.132690,270.762329 
	C544.312378,289.260040 544.196167,307.760559 544.214600,326.260071 
	C544.216064,327.694977 544.434387,329.129730 544.518127,330.152100 
	C561.953735,330.152100 578.957825,331.018311 595.823059,329.860321 
	C607.909363,329.030457 617.145569,321.587158 620.892761,309.785797 
	C624.808350,297.454163 623.830933,285.378510 613.591309,274.899414 
z"/>
<path fill="#14D8FC" opacity="1.000000" stroke="none" 
	d="
M728.000000,361.716919 
	C714.508179,361.724213 701.513062,361.897278 688.526306,361.644318 
	C683.968079,361.555481 683.127197,363.316681 683.847595,367.294098 
	C687.467041,387.276855 704.240784,403.475861 725.150146,403.905914 
	C739.569092,404.202545 751.411133,399.362854 762.533264,391.199432 
	C763.460022,390.519226 764.379272,389.828857 765.723206,388.830170 
	C768.429138,392.311920 771.277954,395.530884 773.486023,399.141632 
	C774.019287,400.013611 772.882568,402.704834 771.753601,403.672211 
	C760.135071,413.627563 746.760254,418.916290 731.312866,419.817200 
	C715.078430,420.763977 700.257996,417.608673 687.059814,407.929199 
	C673.692627,398.125793 666.334717,384.472931 663.898865,368.494751 
	C660.013672,343.009277 665.815918,320.228333 686.561829,303.385803 
	C716.340271,279.210114 766.835144,288.581299 779.029236,331.992340 
	C781.296082,340.062317 781.563354,348.691101 782.795471,357.055847 
	C783.365295,360.924286 781.574463,361.815002 777.968506,361.780365 
	C761.480286,361.622040 744.989746,361.713379 728.000000,361.716919 
M687.705261,329.339233 
	C685.917480,334.913757 684.129761,340.488281 682.170166,346.598541 
	C710.287659,346.598541 736.955505,346.598541 763.605652,346.598541 
	C763.876709,337.124969 758.999512,326.139893 752.514465,318.521606 
	C738.983521,302.626129 701.863525,299.782837 687.705261,329.339233 
z"/>
<path fill="#14D8FC" opacity="1.000000" stroke="none" 
	d="
M814.479492,403.485962 
	C804.492310,387.685486 803.582703,371.959412 813.638794,356.267975 
	C821.428711,344.112701 833.672913,339.448395 847.249756,338.632965 
	C861.955444,337.749756 875.635803,341.399780 887.051270,351.439850 
	C887.618652,351.938873 888.437988,352.151520 889.158142,352.506500 
	C895.134338,337.576477 888.795593,316.728760 876.739868,311.101868 
	C862.235779,304.332245 840.378601,307.671753 828.500427,318.463379 
	C826.441650,320.333801 824.354492,322.173035 821.583679,324.649414 
	C818.729492,320.230804 816.016785,316.494080 813.925903,312.436920 
	C813.459961,311.532745 814.838989,309.163300 815.948486,308.042572 
	C825.315125,298.581024 837.060364,293.615692 849.904419,291.437256 
	C862.917114,289.230194 875.773438,290.335297 888.024353,295.727112 
	C901.763550,301.773956 909.243408,312.892090 909.644409,327.323425 
	C910.439880,355.945251 909.908875,384.603241 910.009216,413.246002 
	C910.018921,416.013885 909.132019,417.146332 906.287048,417.064789 
	C901.184875,416.918579 896.075562,417.023560 890.401489,417.023560 
	C890.401489,412.797668 890.401489,409.218597 890.401489,405.123383 
	C864.322144,423.365509 839.138672,428.445801 814.479492,403.485962 
M879.232788,400.842743 
	C882.013733,398.749908 885.092590,396.942963 887.471069,394.463989 
	C889.062744,392.804993 890.412781,390.238464 890.553162,387.995575 
	C890.904297,382.384796 890.864319,376.687622 890.252075,371.105072 
	C889.955078,368.396851 888.596802,365.326874 886.733765,363.348328 
	C876.671997,352.662384 854.169617,349.373810 840.630981,356.267792 
	C830.340088,361.507996 825.870483,370.069153 826.861633,382.641907 
	C827.644470,392.571869 834.741455,401.602295 844.769287,404.348328 
	C856.329651,407.513947 867.726562,406.753937 879.232788,400.842743 
z"/>
<path fill="#13D8FC" opacity="1.000000" stroke="none" 
	d="
M1045.184692,395.984833 
	C1048.098022,398.356781 1046.843994,400.232910 1045.115356,402.115845 
	C1038.223022,409.622498 1030.279175,415.540741 1020.184326,417.903412 
	C1001.970215,422.166443 984.642456,420.790283 968.530945,410.155884 
	C952.304993,399.445923 944.198730,383.775635 941.716736,365.304108 
	C939.020752,345.239746 943.098145,326.438049 956.855286,310.725006 
	C970.761414,294.841705 988.674255,289.038574 1009.298584,290.896790 
	C1023.403076,292.167572 1035.635132,297.393738 1044.991455,308.546448 
	C1047.210205,311.191071 1047.397095,313.030304 1044.715088,315.147369 
	C1044.065796,315.659912 1043.540894,316.327515 1042.938721,316.902832 
	C1035.924072,323.605133 1035.920654,323.606720 1028.923828,317.024750 
	C1013.941956,302.931122 981.796936,304.749878 968.520386,327.009155 
	C958.358093,344.047211 958.243713,371.901398 972.178955,388.626251 
	C985.063538,404.090210 1011.912048,409.752594 1030.013306,392.307220 
	C1031.662109,390.718079 1033.174927,388.987579 1035.119385,386.933380 
	C1038.543823,390.000580 1041.737671,392.861115 1045.184692,395.984833 
z"/>
<path fill="#12D8FC" opacity="1.000000" stroke="none" 
	d="
M1098.064453,323.030609 
	C1098.065918,343.522858 1098.066284,363.519318 1098.068604,383.515808 
	C1098.068726,384.848877 1098.032837,386.184418 1098.098389,387.514618 
	C1098.799683,401.757935 1108.493896,406.958740 1120.699951,399.659637 
	C1121.526611,399.165314 1122.407593,398.761719 1123.771973,398.050995 
	C1125.346313,402.173553 1126.979858,405.974548 1128.183472,409.907166 
	C1128.523804,411.018890 1128.029663,412.927399 1127.203857,413.773376 
	C1114.568481,426.716919 1084.960083,419.934845 1080.015747,402.741699 
	C1078.529785,397.574493 1078.607422,391.858337 1078.573975,386.389954 
	C1078.431152,363.062012 1078.385498,339.731384 1078.623779,316.404968 
	C1078.672119,311.671570 1077.150024,310.185730 1072.640625,310.598755 
	C1069.170166,310.916595 1065.642822,310.549988 1062.149902,310.700623 
	C1059.290161,310.823914 1058.021729,310.017120 1057.924438,306.814880 
	C1057.538574,294.128601 1057.430176,294.205780 1070.205811,294.026245 
	C1079.147339,293.900635 1078.471436,295.433167 1078.535156,285.729797 
	C1078.581177,278.731567 1078.622192,271.730896 1078.484375,264.734894 
	C1078.416504,261.298187 1079.758057,260.185272 1083.213623,260.116791 
	C1098.042358,259.822937 1098.041748,259.719574 1098.062134,274.354340 
	C1098.068726,279.020172 1098.390869,283.715179 1097.976685,288.343872 
	C1097.541626,293.205139 1099.603882,294.393219 1104.002441,294.126556 
	C1108.983398,293.824585 1114.001099,294.180267 1118.993408,293.994873 
	C1121.942505,293.885345 1123.286133,294.741058 1123.122070,297.908173 
	C1122.916382,301.877075 1123.072632,305.864746 1123.072632,310.634644 
	C1116.893799,310.634644 1111.128418,310.643707 1105.363037,310.632324 
	C1098.075684,310.617920 1098.075439,310.610748 1098.065552,318.035309 
	C1098.063599,319.535156 1098.064331,321.035004 1098.064453,323.030609 
z"/>
<path fill="#F9FFFF" opacity="1.000000" stroke="none" 
	d="
M292.157684,397.632202 
	C269.612152,397.759216 247.482956,397.881958 225.355820,397.720581 
	C223.393509,397.706268 220.712692,396.351959 219.601364,394.758270 
	C206.633957,376.162140 195.184769,356.654327 185.652725,336.069336 
	C184.940231,334.530640 185.022293,331.946838 185.849304,330.474976 
	C196.599594,311.342255 207.452087,292.264221 218.597534,273.360321 
	C219.789627,271.338409 222.941376,269.384644 225.261078,269.290131 
	C241.056671,268.646454 256.872009,268.391876 272.682953,268.267120 
	C278.995636,268.217316 285.337280,268.590607 291.613861,269.258728 
	C293.428558,269.451904 295.738281,270.935822 296.677307,272.510193 
	C308.003143,291.499329 319.180359,310.578644 330.165283,329.766754 
	C331.124695,331.442596 331.317139,334.540710 330.406311,336.154419 
	C319.292664,355.845276 307.939636,375.401703 296.509125,394.911224 
	C295.790039,396.138489 293.912903,396.687256 292.157684,397.632202 
M294.140076,336.215363 
	C296.473633,314.513153 276.249573,293.731354 253.129700,297.088562 
	C237.027206,299.426788 223.905518,312.343903 222.066254,328.397400 
	C220.101227,345.548889 229.336502,361.165009 245.136932,366.952209 
	C269.130859,375.740570 291.545807,358.793793 294.140076,336.215363 
z"/>
<path fill="#FBFFFF" opacity="1.000000" stroke="none" 
	d="
M111.606567,372.450500 
	C97.633263,365.399628 84.979599,357.341217 76.316422,344.205414 
	C71.352608,336.678925 71.249046,329.541779 76.368332,321.968842 
	C85.116409,309.027740 97.806953,301.247681 111.512047,295.026764 
	C121.165451,290.644989 131.337189,287.412567 141.233185,283.553253 
	C144.106018,282.432892 145.379913,283.336243 146.423935,286.108887 
	C152.047272,301.042969 157.895462,315.892578 163.479095,330.841156 
	C164.089844,332.476288 164.014130,334.748901 163.394699,336.402985 
	C157.739822,351.503326 151.852005,366.516235 146.143570,381.596863 
	C145.155640,384.206726 144.179550,385.468811 141.094070,384.194763 
	C131.430054,380.204224 121.662735,376.463867 111.606567,372.450500 
z"/>
<path fill="#FBFFFF" opacity="1.000000" stroke="none" 
	d="
M181.210205,410.878174 
	C190.389084,411.963898 199.145447,412.922363 207.861893,414.161407 
	C209.688736,414.421112 211.933548,415.254791 213.028915,416.601959 
	C223.926193,430.004974 234.622513,443.571381 245.646927,457.432739 
	C245.307037,457.887543 244.760941,458.920410 243.948410,459.660919 
	C227.720703,474.450317 210.533981,487.726776 188.980179,493.976318 
	C186.273315,494.761139 183.522507,495.550446 180.737686,495.884308 
	C166.242310,497.622345 157.465820,492.877380 153.373611,474.856995 
	C148.453430,453.190460 151.282623,431.497711 156.098801,410.049255 
	C156.692963,407.403137 158.026077,406.496979 160.715576,407.042725 
	C167.384506,408.395966 174.085403,409.591675 181.210205,410.878174 
z"/>
<path fill="#FBFFFF" opacity="1.000000" stroke="none" 
	d="
M327.140564,494.080078 
	C306.310211,487.655701 290.162720,474.563751 274.444733,460.802856 
	C272.337616,458.958099 270.728119,457.278015 273.243073,454.178772 
	C283.095062,442.037903 292.612305,429.624939 302.504486,417.517761 
	C303.992859,415.696106 306.690643,414.238953 309.036652,413.842712 
	C324.422119,411.243896 339.880310,409.076965 355.274445,406.525848 
	C358.070251,406.062500 359.601715,406.110870 360.341400,409.241821 
	C365.249664,430.016754 367.701111,450.906372 362.981812,472.038635 
	C361.976807,476.538910 360.209503,480.954254 358.211060,485.129974 
	C353.735321,494.482056 345.582855,497.908142 333.823517,495.766357 
	C331.700562,495.379669 329.627441,494.719482 327.140564,494.080078 
z"/>
<path fill="#FBFFFF" opacity="1.000000" stroke="none" 
	d="
M361.988037,192.206436 
	C366.785065,210.955750 365.044739,229.260971 361.576385,247.536652 
	C360.745087,251.916962 359.655609,256.248260 358.574066,261.099121 
	C353.868378,260.309265 349.511536,259.536255 345.140747,258.852264 
	C332.851440,256.929108 320.544922,255.111557 308.276184,253.066238 
	C306.461578,252.763733 304.262878,251.895340 303.176361,250.539764 
	C292.497559,237.216187 282.016693,223.733978 271.230988,209.979736 
	C271.410889,209.684235 271.693481,208.873993 272.249176,208.357544 
	C289.184540,192.617493 307.082764,178.372726 329.885559,171.937897 
	C332.749969,171.129578 335.719940,170.533447 338.680054,170.256866 
	C347.072845,169.472687 354.043549,173.451004 357.686432,181.145081 
	C359.318359,184.591812 360.499908,188.251770 361.988037,192.206436 
z"/>
<path fill="#FBFFFF" opacity="1.000000" stroke="none" 
	d="
M164.599335,173.324600 
	C170.867432,169.886414 177.202682,170.375458 183.406082,171.697571 
	C205.737198,176.456863 230.476471,194.534363 245.571976,210.290771 
	C242.179611,214.226898 238.645386,218.108734 235.356522,222.188339 
	C228.052673,231.248291 220.954132,240.475021 213.565338,249.463989 
	C212.227325,251.091782 210.030792,252.639099 208.016953,252.987076 
	C192.170898,255.725266 176.273270,258.165131 160.389771,260.685913 
	C159.584473,260.813721 158.763214,260.841064 156.889313,261.011749 
	C155.422791,252.691162 153.652267,244.462952 152.578522,236.144806 
	C150.786194,222.259659 150.387253,208.338470 152.905014,194.444794 
	C154.402771,186.179733 157.334595,178.785767 164.599335,173.324600 
z"/>
<path fill="#FBFFFF" opacity="1.000000" stroke="none" 
	d="
M425.177094,359.215698 
	C408.918823,370.913574 391.272430,378.783966 371.671844,384.224701 
	C369.794769,378.596680 368.246490,373.057556 366.114471,367.753052 
	C361.959259,357.414764 357.327362,347.266785 353.252716,336.898590 
	C352.403412,334.737488 352.416443,331.708130 353.219177,329.513000 
	C358.469360,315.155823 364.093750,300.935944 369.470673,286.624176 
	C370.402710,284.143311 371.105927,282.576050 374.360291,283.567719 
	C393.093903,289.276276 410.994995,296.731232 426.638336,308.737366 
	C430.955322,312.050598 434.918762,316.009613 438.371643,320.223602 
	C444.780334,328.044952 444.863190,338.144714 438.468811,345.977478 
	C434.607849,350.707001 429.829773,354.687836 425.177094,359.215698 
z"/>
<path fill="#F0FEFE" opacity="1.000000" stroke="none" 
	d="
M346.371155,365.599548 
	C349.368011,373.355347 352.209778,380.756073 355.494934,389.311584 
	C342.594727,391.372314 330.617981,393.285522 317.432861,395.391754 
	C325.712860,380.983276 333.290710,367.796600 341.635986,353.274445 
	C343.471344,358.071136 344.843719,361.657776 346.371155,365.599548 
z"/>
<path fill="#F0FEFE" opacity="1.000000" stroke="none" 
	d="
M186.033661,373.965027 
	C190.165039,380.968048 194.132812,387.642242 198.630356,395.207550 
	C192.643021,394.556183 187.338089,394.093994 182.068314,393.374329 
	C176.491058,392.612671 170.910599,391.773285 165.419113,390.568542 
	C164.289764,390.320770 162.516632,387.969666 162.782623,387.161469 
	C166.289932,376.504578 170.109589,365.950500 173.851059,355.370697 
	C174.351883,355.368958 174.852692,355.367218 175.353516,355.365479 
	C178.859039,361.455688 182.364548,367.545929 186.033661,373.965027 
z"/>
<path fill="#F0FEFE" opacity="1.000000" stroke="none" 
	d="
M263.592316,228.418839 
	C269.590271,235.690521 275.352112,242.701431 281.793854,250.539688 
	C265.650726,250.539688 250.695541,250.539688 234.294922,250.539688 
	C242.375412,240.828308 249.811371,231.891571 258.599365,221.329926 
	C260.550140,224.130157 261.953156,226.144119 263.592316,228.418839 
z"/>
<path fill="#F0FEFE" opacity="1.000000" stroke="none" 
	d="
M258.894043,443.623901 
	C250.629257,434.968781 242.696991,426.235138 234.764725,417.501495 
	C235.139740,417.065796 235.514755,416.630096 235.889771,416.194397 
	C250.905090,416.194397 265.920410,416.194397 282.728973,416.194397 
	C274.398865,425.888550 266.812744,434.716949 258.894043,443.623901 
z"/>
<path fill="#F0FEFE" opacity="1.000000" stroke="none" 
	d="
M351.212341,287.233337 
	C348.044098,295.629303 345.015350,303.662964 341.479309,313.042236 
	C333.277405,298.897339 325.762970,285.938080 317.492889,271.675659 
	C329.546051,273.687286 340.395996,275.411469 351.185669,277.453827 
	C352.106384,277.628143 353.251007,279.953308 353.185638,281.222351 
	C353.087341,283.131683 352.011871,284.990692 351.212341,287.233337 
z"/>
<path fill="#F0FEFE" opacity="1.000000" stroke="none" 
	d="
M184.608826,295.598145 
	C181.448868,301.076324 178.469360,306.233337 174.578812,312.967255 
	C170.049408,300.757446 165.969666,289.759766 161.460342,277.604065 
	C174.150635,275.552399 185.725021,273.681122 198.363403,271.637848 
	C193.440186,280.211548 189.114731,287.744263 184.608826,295.598145 
z"/>
<path fill="#F9FEFF" opacity="1.000000" stroke="none" 
	d="
M613.851929,275.143677 
	C623.830933,285.378510 624.808350,297.454163 620.892761,309.785797 
	C617.145569,321.587158 607.909363,329.030457 595.823059,329.860321 
	C578.957825,331.018311 561.953735,330.152100 544.518127,330.152100 
	C544.434387,329.129730 544.216064,327.694977 544.214600,326.260071 
	C544.196167,307.760559 544.312378,289.260040 544.132690,270.762329 
	C544.093140,266.682465 545.238647,265.133942 549.468567,265.255310 
	C564.608093,265.689758 579.767639,265.567078 594.894897,266.224579 
	C602.057373,266.535919 608.282715,270.008667 613.851929,275.143677 
z"/>
<path fill="#F9FEFF" opacity="1.000000" stroke="none" 
	d="
M687.880798,329.009613 
	C701.863525,299.782837 738.983521,302.626129 752.514465,318.521606 
	C758.999512,326.139893 763.876709,337.124969 763.605652,346.598541 
	C736.955505,346.598541 710.287659,346.598541 682.170166,346.598541 
	C684.129761,340.488281 685.917480,334.913757 687.880798,329.009613 
z"/>
<path fill="#F9FFFF" opacity="1.000000" stroke="none" 
	d="
M878.898682,401.003845 
	C867.726562,406.753937 856.329651,407.513947 844.769287,404.348328 
	C834.741455,401.602295 827.644470,392.571869 826.861633,382.641907 
	C825.870483,370.069153 830.340088,361.507996 840.630981,356.267792 
	C854.169617,349.373810 876.671997,352.662384 886.733765,363.348328 
	C888.596802,365.326874 889.955078,368.396851 890.252075,371.105072 
	C890.864319,376.687622 890.904297,382.384796 890.553162,387.995575 
	C890.412781,390.238464 889.062744,392.804993 887.471069,394.463989 
	C885.092590,396.942963 882.013733,398.749908 878.898682,401.003845 
z"/>
<path fill="#05D8FE" opacity="1.000000" stroke="none" 
	d="
M294.094940,336.666138 
	C291.545807,358.793793 269.130859,375.740570 245.136932,366.952209 
	C229.336502,361.165009 220.101227,345.548889 222.066254,328.397400 
	C223.905518,312.343903 237.027206,299.426788 253.129700,297.088562 
	C276.249573,293.731354 296.473633,314.513153 294.094940,336.666138 
z"/>
</svg>